<?xml version="1.0" encoding="utf-8"?>
<!-- Generator: Adobe Illustrator 19.0.0, SVG Export Plug-In . SVG Version: 6.00 Build 0)  -->
<svg version="1.1" id="Слой_1" xmlns="http://www.w3.org/2000/svg" xmlns:xlink="http://www.w3.org/1999/xlink" x="0px" y="0px"
	 viewBox="0 0 481.9 226.8" enable-background="new 0 0 481.9 226.8" xml:space="preserve">
<g>
	<g>
		<path fill="#ED1C24" d="M15.5,83.3c-1.8,0-3.5-0.8-4.6-2.4c-1.8-2.5-1.2-6.1,1.4-7.8L46,49.4c2.5-1.8,6.1-1.2,7.8,1.4
			c1.8,2.5,1.2,6.1-1.4,7.8L18.7,82.2C17.7,82.9,16.6,83.3,15.5,83.3"/>
		<path fill="#ED1C24" d="M15.5,107.2c-1.8,0-3.5-0.8-4.6-2.4c-1.8-2.5-1.2-6.1,1.4-7.8L46,73.3c2.5-1.8,6.1-1.2,7.8,1.4
			c1.8,2.5,1.2,6.1-1.4,7.8l-33.8,23.6C17.7,106.8,16.6,107.2,15.5,107.2"/>
		<path fill="#ED1C24" d="M15.5,131.1c-1.8,0-3.5-0.8-4.6-2.4c-1.8-2.5-1.2-6.1,1.4-7.8L46,97.2c2.5-1.8,6.1-1.2,7.8,1.4
			c1.8,2.5,1.2,6.1-1.4,7.8l-33.8,23.6C17.7,130.7,16.6,131.1,15.5,131.1"/>
		<path fill="#ED1C24" d="M15.5,155c-1.8,0-3.5-0.8-4.6-2.4c-1.8-2.5-1.2-6.1,1.4-7.8L46,121.1c2.5-1.8,6.1-1.2,7.8,1.4
			c1.8,2.5,1.2,6.1-1.4,7.8L18.7,154C17.7,154.7,16.6,155,15.5,155"/>
		<path fill="#ED1C24" d="M15.5,178.9c-1.8,0-3.5-0.8-4.6-2.4c-1.8-2.5-1.2-6.1,1.4-7.8L46,145c2.5-1.8,6.1-1.2,7.8,1.4
			c1.8,2.5,1.2,6.1-1.4,7.8l-33.8,23.6C17.7,178.6,16.6,178.9,15.5,178.9"/>
		<path fill="#ED1C24" d="M68.2,71.8c-1,0.7-2.1,1-3.2,1c-1.8,0-3.5-0.8-4.6-2.4c-1.8-2.5-1.2-6.1,1.4-7.8l18.8-13.2
			c2.5-1.8,6.1-1.2,7.8,1.4c1.8,2.5,1.2,6.1-1.4,7.8L68.2,71.8z"/>
		<path fill="#ED1C24" d="M65,96.7c-1.8,0-3.5-0.8-4.6-2.4c-1.8-2.5-1.2-6.1,1.4-7.8l33.8-23.6c2.5-1.8,6.1-1.2,7.8,1.4
			c1.8,2.5,1.2,6.1-1.4,7.8L68.2,95.7C67.2,96.4,66.1,96.7,65,96.7"/>
		<path fill="#ED1C24" d="M65,120.6c-1.8,0-3.5-0.8-4.6-2.4c-1.8-2.5-1.2-6.1,1.4-7.8l33.8-23.6c2.5-1.8,6.1-1.2,7.8,1.4
			c1.8,2.5,1.2,6.1-1.4,7.8l-33.8,23.6C67.2,120.3,66.1,120.6,65,120.6"/>
	</g>
	<g>
		<path fill="#6D6E71" d="M153.3,131l13.4,21H157l-12.2-19.8h-8.7v19.8h-8.8v-49.8h17.3c12,0,19,5,19,15
			C163.6,124.2,159.9,129.1,153.3,131 M144.7,109.6h-8.6v15.1h8.6c6.9,0,10-2.3,10-7.5C154.6,111.9,151.6,109.6,144.7,109.6"/>
		<path fill="#6D6E71" d="M188.2,152.8c-11.2,0-18.3-7.7-18.3-19.3c0-11.5,7.2-19.3,18.3-19.3c11.2,0,18.3,7.7,18.3,19.3
			C206.5,145,199.3,152.8,188.2,152.8 M188.2,121.1c-6.2,0-9.8,4.8-9.8,12.4c0,7.7,3.6,12.4,9.8,12.4c6.2,0,9.8-4.8,9.8-12.4
			C198,125.9,194.4,121.1,188.2,121.1"/>
		<path fill="#6D6E71" d="M254.5,109.6c-2.9,0-5.2-2.2-5.2-5.1c0-2.9,2.3-5.1,5.2-5.1c2.9,0,5.2,2.2,5.2,5.1
			C259.7,107.4,257.4,109.6,254.5,109.6 M250.3,115.1h8.4v36.8h-8.4V115.1z"/>
		<path fill="#6D6E71" d="M277,126.1v25.9h-8.4v-36.8h8.4v4.3c2.8-2.8,7-5.1,12.4-5.1c7.7,0,13,4.8,13,13.8v23.9H294v-22.7
			c0-5.2-2.3-8.2-7.1-8.2C282.7,121.1,279,123.5,277,126.1"/>
		<path fill="#6D6E71" d="M331.1,152.8c-4.3,0-8.2-1.7-11.1-4.4v3.6h-8.4V100h8.4v18.6c2.8-2.7,6.8-4.4,11.1-4.4
			c10.1,0,15.9,7.5,15.9,19.3C347,145.3,341.2,152.8,331.1,152.8 M320,125.1V142c2.2,2.5,5.8,3.9,9,3.9c6.5,0,9.5-4.7,9.5-12.4
			c0-7.7-3-12.4-9.5-12.4C325.8,121.2,322.2,122.6,320,125.1"/>
		<path fill="#6D6E71" d="M403.4,126.1v25.9H395v-36.8h8.4v4.3c2.8-2.8,7-5.1,12.4-5.1c7.7,0,13,4.8,13,13.8v23.9h-8.4v-22.7
			c0-5.2-2.3-8.2-7.1-8.2C409.2,121.1,405.4,123.5,403.4,126.1"/>
		<path fill="#6D6E71" d="M370,114.3c-4.8,0-10.2,0.9-14.5,3.4l2.8,5.7c3.3-1.6,7.9-2.2,10.7-2.2c6.4,0,8.4,3.1,8.4,7.7v1.7
			c-2.8-0.9-6.3-1.7-10.8-1.7c-8,0-13.9,5-13.9,12c0,7,4.7,12,12.8,12c4.3,0,9.3-2.2,11.9-4.8v3.9h8.4v-21.7
			C385.8,120.8,382.2,114.3,370,114.3 M377.4,141.8c-2.3,2.2-6.6,4.1-9.8,4.1c-4.5,0-6.4-1.7-6.4-5.2c0-3.5,2.9-5.2,7.5-5.2
			c3.3,0,6.1,0.5,8.7,1.5V141.8z"/>
		<path fill="#6D6E71" d="M230.6,129.7c-7-2.1-9-3.3-9-5.4c0-2.1,2.3-3.4,5.8-3.4c2.8,0,7,1,10.2,3l2.8-5.8
			c-4.2-2.7-8.5-3.8-13.7-3.8c-8.7,0-13.5,4.2-13.5,10.2c0,5.7,3.1,9,12.7,11.7c6.3,1.8,8,3.1,8,5.8c0,2.5-1.8,3.9-6.1,3.9
			c-3.9,0-8.9-1.9-12.3-4.6l-3.1,6.5c4.7,3.3,10,4.9,16.2,4.9c9.5,0,14.4-4.4,14.4-11.2C242.8,135.5,238.6,132,230.6,129.7"/>
		<polygon fill="#6D6E71" points="472.1,151.9 462.9,151.9 451.8,134.9 446.4,134.9 446.4,151.9 438,151.9 438,100 446.4,100 
			446.4,128.2 452,128.2 461.8,115.1 470.8,115.1 458.3,131.5 		"/>
	</g>
</g>
</svg>
